<?xml version="1.0" encoding="UTF-8" standalone="no"?>
<!-- Created with Inkscape (http://www.inkscape.org/) -->

<svg
   width="95.690521mm"
   height="129.48581mm"
   viewBox="0 0 95.690521 129.48581"
   version="1.1"
   id="svg1755"
   sodipodi:docname="lock.svg"
   inkscape:version="1.1 (c4e8f9e, 2021-05-24)"
   xmlns:inkscape="http://www.inkscape.org/namespaces/inkscape"
   xmlns:sodipodi="http://sodipodi.sourceforge.net/DTD/sodipodi-0.dtd"
   xmlns="http://www.w3.org/2000/svg"
   xmlns:svg="http://www.w3.org/2000/svg">
  <sodipodi:namedview
     id="namedview1757"
     pagecolor="#ffffff"
     bordercolor="#666666"
     borderopacity="1.0"
     inkscape:pageshadow="2"
     inkscape:pageopacity="0.0"
     inkscape:pagecheckerboard="0"
     inkscape:document-units="mm"
     showgrid="false"
     inkscape:zoom="0.2381708"
     inkscape:cx="193.13871"
     inkscape:cy="16.79467"
     inkscape:window-width="1147"
     inkscape:window-height="640"
     inkscape:window-x="0"
     inkscape:window-y="30"
     inkscape:window-maximized="0"
     inkscape:current-layer="layer1"
     fit-margin-top="0"
     fit-margin-left="0"
     fit-margin-right="0"
     fit-margin-bottom="0" />
  <defs
     id="defs1752" />
  <g
     inkscape:label="Layer 1"
     inkscape:groupmode="layer"
     id="layer1"
     transform="translate(43.431251,-33.989675)">
    <path
       style="stroke-width:0.264583"
       d="m -32.759949,163.3935 c -4.357484,-0.62503 -8.271953,-3.7409 -9.961663,-7.92934 l -0.62167,-1.54099 -0.07314,-28.01439 c -0.04788,-18.339 0.02068,-28.527827 0.198501,-29.501037 0.568599,-3.11185 2.788741,-6.34981 5.548243,-8.09181 1.698273,-1.07207 3.80525,-1.71241 6.253769,-1.90062 l 2.17497,-0.16719 0.1227,-8.231222 c 0.229594,-15.402108 0.21411,-16.327572 1.8222,-21.153916 4.89869,-14.702392 19.5992803,-24.288282 34.8153003,-22.702196 8.1945297,0.85418 15.0329597,4.101541 20.6901697,9.825111 4.68796,4.742953 7.87999,10.88451 9.16806,17.639585 0.37165,1.949077 0.394274,4.68454 0.56877,16.391416 l 0.12269,8.231222 2.17497,0.16719 c 2.44852,0.18821 4.5555,0.82855 6.25377,1.90062 2.75951,1.742 4.97965,4.97996 5.54825,8.09181 0.17782,0.97321 0.24638,11.162037 0.1985,29.501037 l -0.0731,28.01439 -0.62167,1.54099 c -0.90647,2.24695 -2.80434,4.59799 -4.77196,5.91141 -3.34395,2.23215 0.25331,2.05097 -41.5699097,2.09376 -20.4456803,0.0209 -37.5311503,-0.0132 -37.9677103,-0.0758 z M 7.3363813,141.22883 c 1.49554,-0.75399 2.8616397,-2.25784 3.4293297,-3.77511 0.45806,-1.22429 0.52746,-2.06295 0.52746,-6.37411 v -4.96432 l 1.47702,-1.52494 c 3.918,-4.04511 4.50244,-10.06145 1.42505,-14.66988 -4.6777597,-7.005 -14.88470966,-7.005 -19.5624597,0 -3.07739,4.60843 -2.49296,10.62477 1.42504,14.66988 l 1.47702,1.52494 v 4.96432 c 0,4.31116 0.0694,5.14982 0.52747,6.37411 0.72566,1.93952 2.41380004,3.51913 4.48416,4.19589 1.03039,0.33681 3.76345,0.0967 4.78991,-0.42078 z M 19.695121,78.583069 c -0.157163,-11.816718 -0.16121,-13.761121 -0.55652,-15.125844 -1.20161,-4.148266 -4.30368,-7.834512 -8.14217,-9.675459 -4.3469497,-2.084809 -8.8178897,-2.084809 -13.1648497,0 -3.83848,1.840947 -6.94056,5.527193 -8.1421603,9.675459 -0.39532,1.364723 -0.399367,3.309126 -0.55653,15.125844 l -0.10293,7.739064 H 4.4140113 19.798051 Z"
       id="path1942"
       sodipodi:nodetypes="sscsssscsssssscsssccsssssssscsssscsssssssssscccs" />
  </g>
</svg>
