<?xml version="1.0" encoding="UTF-8" standalone="no"?>
<!-- Created with Inkscape (http://www.inkscape.org/) -->

<svg
   width="128.98318mm"
   height="128.95648mm"
   viewBox="0 0 128.98318 128.95648"
   version="1.1"
   id="svg1755"
   sodipodi:docname="unlock.svg"
   inkscape:version="1.1 (c4e8f9e, 2021-05-24)"
   xmlns:inkscape="http://www.inkscape.org/namespaces/inkscape"
   xmlns:sodipodi="http://sodipodi.sourceforge.net/DTD/sodipodi-0.dtd"
   xmlns="http://www.w3.org/2000/svg"
   xmlns:svg="http://www.w3.org/2000/svg">
  <sodipodi:namedview
     id="namedview1757"
     pagecolor="#ffffff"
     bordercolor="#666666"
     borderopacity="1.0"
     inkscape:pageshadow="2"
     inkscape:pageopacity="0.0"
     inkscape:pagecheckerboard="0"
     inkscape:document-units="mm"
     showgrid="false"
     inkscape:zoom="0.4243218"
     inkscape:cx="374.7156"
     inkscape:cy="414.77954"
     inkscape:window-width="1147"
     inkscape:window-height="640"
     inkscape:window-x="0"
     inkscape:window-y="30"
     inkscape:window-maximized="0"
     inkscape:current-layer="layer1"
     fit-margin-top="0"
     fit-margin-left="0"
     fit-margin-right="0"
     fit-margin-bottom="0"
     showguides="false" />
  <defs
     id="defs1752" />
  <g
     inkscape:label="Layer 1"
     inkscape:groupmode="layer"
     id="layer1"
     transform="translate(43.431101,-34.518818)">
    <path
       id="path1942"
       style="fill:#ffffff;stroke-width:0.999999"
       d="m 362.52344,2.0039062 c -4.4524,-0.036283 -8.93286,0.1742342 -13.42578,0.6425782 -30.97146,3.2283968 -56.81764,15.5023746 -78.19922,37.1347656 -17.71827,17.926122 -29.78209,41.138937 -34.65039,66.66992 -1.40466,7.36659 -1.49089,17.70472 -2.15039,61.95117 l -0.43946,29.38868 h -52.82617 -44.14453 -14 -72.683594 l -4.591797,0.35351 c -9.254245,0.71135 -17.218049,3.1317 -23.636718,7.18359 -10.429614,6.58394 -18.8197148,18.82071 -20.96875038,30.58204 -0.67207935,3.67827 -0.93096377,42.18724 -0.75,111.5 l 0.27539063,105.88086 2.34960935,5.82421 c 6.3863053,15.83033 21.1811594,27.60839 37.6503904,29.97071 1.649991,0.2366 66.224989,0.36415 143.499999,0.28515 158.07201,-0.16172 144.47668,0.52437 157.11524,-7.91211 7.43667,-4.9641 14.60912,-13.85134 18.03515,-22.34375 l 2.34961,-5.82421 0.27735,-105.88086 c 0.18094,-69.31276 -0.0779,-107.82173 -0.75,-111.5 -2.14904,-11.76133 -10.54106,-23.9981 -20.97071,-30.58204 -6.41866,-4.05189 -14.38247,-6.47224 -23.63672,-7.18359 l -8.21875,-0.63281 h -5.3125 l 0.35742,-26.9707 c 0.59401,-44.66162 0.60944,-52.00996 2.10352,-57.16797 4.54152,-15.678493 16.26576,-29.610453 30.77344,-36.568362 16.42942,-7.879594 33.32835,-7.879594 49.75781,0 14.50764,6.957909 26.23196,20.889869 30.77344,36.568362 1.39811,4.82653 1.51364,12.77524 2.00781,50.21484 h 69.00195 C 486.70435,110.40547 486.57093,106.12662 480.68164,88.451172 463.61337,37.224336 415.06179,2.4309891 362.52344,2.0039062 Z M 180.83203,267.125 c 14.06429,0 28.12889,6.61963 36.96875,19.85742 11.63108,17.41769 9.42147,40.15671 -5.38672,55.44531 l -5.58203,5.76368 v 18.76171 c 0,16.29415 -0.26094,19.46456 -1.99219,24.0918 -2.1456,5.73457 -7.31045,11.41785 -12.96289,14.26758 -3.87953,1.95583 -14.20913,2.86478 -18.10351,1.5918 -7.82499,-2.55784 -14.20462,-8.52891 -16.94727,-15.85938 -1.73129,-4.62724 -1.99414,-7.79765 -1.99414,-24.0918 V 348.19141 L 149.25,342.42773 c -14.80819,-15.2886 -17.0178,-38.02762 -5.38672,-55.44531 8.83984,-13.23779 22.90446,-19.85742 36.96875,-19.85742 z"
       transform="matrix(0.26458333,0,0,0.26458333,-43.431251,33.989675)" />
  </g>
</svg>
